<svg width="209" height="43" viewBox="0 0 209 43" fill="none" xmlns="http://www.w3.org/2000/svg">
<path d="M42.5 21.5C42.5 9.90202 33.098 0.5 21.5 0.5C9.90202 0.5 0.5 9.90202 0.5 21.5C0.5 33.098 9.90202 42.5 21.5 42.5C33.098 42.5 42.5 33.098 42.5 21.5Z" fill="#DFECE2"/>
<path d="M42.5 21.5C42.5 9.90202 33.098 0.5 21.5 0.5C9.90202 0.5 0.5 9.90202 0.5 21.5C0.5 33.098 9.90202 42.5 21.5 42.5C33.098 42.5 42.5 33.098 42.5 21.5Z" fill="url(#paint0_linear_9_112)" fill-opacity="0.84"/>
<path d="M42.5 21.5C42.5 9.90202 33.098 0.5 21.5 0.5C9.90202 0.5 0.5 9.90202 0.5 21.5C0.5 33.098 9.90202 42.5 21.5 42.5C33.098 42.5 42.5 33.098 42.5 21.5Z" fill="#224636"/>
<path d="M42.5 21.5C42.5 9.90202 33.098 0.5 21.5 0.5C9.90202 0.5 0.5 9.90202 0.5 21.5C0.5 33.098 9.90202 42.5 21.5 42.5C33.098 42.5 42.5 33.098 42.5 21.5Z" stroke="#CCE4D4"/>
<path fill-rule="evenodd" clip-rule="evenodd" d="M15.9037 18.6785C15.9037 17.6872 15.076 16.8757 14.065 16.8757C13.0539 16.8757 12.2262 17.6872 12.2262 18.6785V19.4673H10.3713C9.56221 17.1659 9.56106 14.785 11.1839 12.5097C12.7707 10.2869 15.567 9.18638 18.3437 9.1351V12.709H19.1481C20.1592 12.709 20.9868 13.5205 20.9868 14.5118C20.9868 15.5032 20.1592 16.3147 19.1481 16.3147H18.3437V19.4661H15.9026V18.6774L15.9037 18.6785ZM26.3112 23.3678V24.2009C26.3112 25.0169 26.9938 25.6862 27.8261 25.6862C28.6584 25.6862 29.3409 25.0169 29.3409 24.2009V23.3678C29.3409 23.1356 29.5325 22.9489 29.7681 22.9489H31.4083C31.0833 22.2842 31.2586 21.8165 31.5058 21.1495C31.7484 20.495 31.8297 20.0364 31.8157 19.3375C31.7821 17.5677 30.9231 16.0961 29.6381 15.0081C28.3311 13.9007 26.5862 13.1882 24.8139 12.9537C24.475 12.9093 24.136 12.882 23.7994 12.8729V15.8105H24.2219C24.8743 15.8105 25.4663 16.0723 25.8958 16.4934C26.3253 16.9145 26.5923 17.495 26.5923 18.1346C26.5923 18.7742 26.3253 19.3558 25.8958 19.7758C25.4663 20.1969 24.8743 20.4587 24.2219 20.4587H23.7982V22.9513H25.883C26.1198 22.9513 26.3102 23.1391 26.3102 23.3701L26.3112 23.3678ZM22.5236 30.9273C21.2188 30.9273 20.1532 29.8825 20.1532 28.6032C20.1532 27.3238 21.2188 26.279 22.5236 26.279H22.9473V23.7865H20.7951C20.5583 23.7865 20.368 23.5987 20.368 23.3676V22.5345C20.368 21.7184 19.6854 21.0492 18.8531 21.0492C18.0208 21.0492 17.3383 21.7184 17.3383 22.5345V23.3676C17.3383 23.5998 17.1467 23.7865 16.9111 23.7865H15.5657C15.6621 24.0232 15.7666 24.2588 15.8768 24.4921C16.0765 24.9133 16.2971 25.3287 16.5338 25.7384C17.3615 27.1691 17.7016 28.5929 17.7422 29.9291C17.7852 31.3848 17.4718 32.7313 17.0434 33.8638H22.9496V30.9262H22.5259L22.5236 30.9273ZM26.7989 31.4588C27.0844 31.5316 27.392 31.5976 27.7333 31.6602C28.5702 31.8128 30.005 32.0313 30.7641 31.7706C31.1263 31.6466 31.3549 31.3655 31.3549 30.7975C31.3549 30.439 31.3143 29.8585 31.2748 29.2804C31.1669 27.7166 31.3491 27.1828 32.8675 26.7617C33.1391 26.6865 33.5036 26.4271 33.5001 26.0867C33.4931 25.5643 32.5111 24.6652 32.2836 24.3329C32.1501 24.1371 32.027 23.9561 31.9144 23.7877H30.1976V24.202C30.1976 24.8416 29.9306 25.4221 29.5011 25.8443C29.0716 26.2654 28.4796 26.5272 27.8273 26.5272C27.1749 26.5272 26.5829 26.2655 26.1534 25.8443C25.7239 25.4232 25.4569 24.8416 25.4569 24.202V23.7877H23.8004V26.6991C23.8004 26.929 23.6101 27.1179 23.3744 27.1179H22.5247C21.6924 27.1179 21.0099 27.7872 21.0099 28.6032C21.0099 29.4193 21.6924 30.0885 22.5247 30.0885H23.3744C23.6112 30.0885 23.8004 30.282 23.8004 30.5142V33.8649H24.7059C24.9032 33.4916 25.1133 33.1376 25.3524 32.7905C25.6426 32.3705 25.9735 31.9687 26.3728 31.5681C26.4877 31.4532 26.6537 31.4156 26.8 31.4589L26.7989 31.4588Z" fill="white"/>
<g filter="url(#filter0_d_9_112)">
<path d="M13.7251 17.0744C14.7361 17.0744 15.5638 17.886 15.5638 18.8773L15.5627 18.8761V19.6648H18.0039V16.5134H18.8083C19.8193 16.5134 20.647 15.7019 20.647 14.7106C20.647 13.7193 19.8193 12.9077 18.8083 12.9077H18.0039V9.33383C15.2272 9.38511 12.4308 10.4856 10.844 12.7084C9.2212 14.9837 9.22236 17.3647 10.0314 19.666H11.8864V18.8773C11.8864 17.886 12.7141 17.0744 13.7251 17.0744Z" fill="#6EB78C"/>
</g>
<path d="M54.42 28.5V14.5H56.82V26.62H63.06V28.5H54.42ZM68.5873 28.74C67.5873 28.74 66.7073 28.5267 65.9473 28.1C65.1873 27.66 64.594 27.0467 64.1673 26.26C63.7407 25.4733 63.5273 24.5667 63.5273 23.54C63.5273 22.4733 63.734 21.54 64.1473 20.74C64.574 19.94 65.1673 19.3133 65.9273 18.86C66.7007 18.4067 67.594 18.18 68.6073 18.18C69.594 18.18 70.454 18.4 71.1873 18.84C71.9207 19.28 72.4873 19.8733 72.8873 20.62C73.2873 21.3533 73.4873 22.18 73.4873 23.1C73.4873 23.2333 73.4873 23.38 73.4873 23.54C73.4873 23.7 73.474 23.8667 73.4473 24.04H65.2473V22.5H71.0673C71.0407 21.7667 70.794 21.1933 70.3273 20.78C69.8607 20.3533 69.2807 20.14 68.5873 20.14C68.094 20.14 67.6407 20.2533 67.2273 20.48C66.814 20.7067 66.4873 21.0467 66.2473 21.5C66.0073 21.94 65.8873 22.5 65.8873 23.18V23.76C65.8873 24.3867 66.0007 24.9267 66.2273 25.38C66.4673 25.8333 66.7873 26.18 67.1873 26.42C67.6007 26.6467 68.0607 26.76 68.5673 26.76C69.1273 26.76 69.5873 26.64 69.9473 26.4C70.3207 26.16 70.594 25.84 70.7673 25.44H73.2073C73.0207 26.0667 72.714 26.6333 72.2873 27.14C71.8607 27.6333 71.334 28.0267 70.7073 28.32C70.0807 28.6 69.374 28.74 68.5873 28.74ZM78.888 28.5C78.208 28.5 77.6146 28.3933 77.108 28.18C76.6146 27.9667 76.228 27.6133 75.948 27.12C75.668 26.6267 75.528 25.96 75.528 25.12V20.44H73.808V18.42H75.528L75.808 15.76H77.928V18.42H80.668V20.44H77.928V25.12C77.928 25.6267 78.0346 25.98 78.248 26.18C78.4746 26.3667 78.848 26.46 79.368 26.46H80.608V28.5H78.888ZM81.9259 28.5V18.42H84.3259V28.5H81.9259ZM81.0659 17.56L80.8459 15.94L85.1259 13.44L85.4059 15.3L81.0659 17.56ZM90.7841 28.74C89.7974 28.74 88.9107 28.52 88.1241 28.08C87.3507 27.6267 86.7441 27.0067 86.3041 26.22C85.8774 25.42 85.6641 24.5133 85.6641 23.5C85.6641 22.4467 85.8774 21.5267 86.3041 20.74C86.7441 19.94 87.3507 19.3133 88.1241 18.86C88.9107 18.4067 89.8041 18.18 90.8041 18.18C92.0574 18.18 93.1107 18.5133 93.9641 19.18C94.8174 19.8333 95.3641 20.7333 95.6041 21.88H93.0841C92.9507 21.3733 92.6707 20.9733 92.2441 20.68C91.8307 20.3867 91.3374 20.24 90.7641 20.24C90.2707 20.24 89.8174 20.3667 89.4041 20.62C89.0041 20.8733 88.6841 21.24 88.4441 21.72C88.2174 22.2 88.1041 22.78 88.1041 23.46C88.1041 23.98 88.1707 24.44 88.3041 24.84C88.4374 25.24 88.6241 25.58 88.8641 25.86C89.1174 26.1267 89.4041 26.3333 89.7241 26.48C90.0441 26.6267 90.3907 26.7 90.7641 26.7C91.1507 26.7 91.4974 26.64 91.8041 26.52C92.1241 26.3867 92.3907 26.1933 92.6041 25.94C92.8307 25.6867 92.9907 25.3867 93.0841 25.04H95.6041C95.3641 26.16 94.8174 27.06 93.9641 27.74C93.1107 28.4067 92.0507 28.74 90.7841 28.74ZM97.0181 28.5V18.42H99.4181V28.5H97.0181ZM98.2181 16.82C97.7781 16.82 97.4115 16.6867 97.1181 16.42C96.8381 16.14 96.6981 15.8 96.6981 15.4C96.6981 14.9867 96.8381 14.6533 97.1181 14.4C97.4115 14.1333 97.7781 14 98.2181 14C98.6581 14 99.0181 14.1333 99.2981 14.4C99.5915 14.6533 99.7381 14.9867 99.7381 15.4C99.7381 15.8 99.5915 16.14 99.2981 16.42C99.0181 16.6867 98.6581 16.82 98.2181 16.82ZM104.552 28.74C103.725 28.74 103.038 28.6 102.492 28.32C101.945 28.04 101.538 27.6667 101.272 27.2C101.005 26.7333 100.872 26.2267 100.872 25.68C100.872 25.04 101.032 24.4867 101.352 24.02C101.685 23.5533 102.172 23.1933 102.812 22.94C103.452 22.6733 104.238 22.54 105.172 22.54H107.712C107.712 22.0067 107.638 21.5667 107.492 21.22C107.345 20.86 107.118 20.5933 106.812 20.42C106.505 20.2467 106.112 20.16 105.632 20.16C105.085 20.16 104.618 20.2867 104.232 20.54C103.845 20.78 103.605 21.1533 103.512 21.66H101.152C101.232 20.94 101.472 20.3267 101.872 19.82C102.272 19.3 102.798 18.9 103.452 18.62C104.118 18.3267 104.845 18.18 105.632 18.18C106.578 18.18 107.385 18.3467 108.052 18.68C108.718 19 109.225 19.4667 109.572 20.08C109.932 20.68 110.112 21.4067 110.112 22.26V28.5H108.072L107.832 26.88C107.698 27.1467 107.525 27.3933 107.312 27.62C107.112 27.8467 106.878 28.0467 106.612 28.22C106.345 28.38 106.038 28.5067 105.692 28.6C105.358 28.6933 104.978 28.74 104.552 28.74ZM105.092 26.84C105.478 26.84 105.818 26.7733 106.112 26.64C106.418 26.4933 106.678 26.2933 106.892 26.04C107.118 25.7733 107.292 25.48 107.412 25.16C107.532 24.84 107.612 24.5 107.652 24.14V24.1H105.432C104.965 24.1 104.578 24.16 104.272 24.28C103.965 24.3867 103.745 24.5467 103.612 24.76C103.478 24.9733 103.412 25.22 103.412 25.5C103.412 25.78 103.478 26.02 103.612 26.22C103.745 26.42 103.938 26.5733 104.192 26.68C104.445 26.7867 104.745 26.84 105.092 26.84ZM115.639 28.5V14.5H124.579V16.44H118.039V20.54H123.379V22.44H118.039V28.5H115.639ZM125.555 28.5V18.42H127.695L127.915 20.3C128.155 19.86 128.455 19.4867 128.815 19.18C129.175 18.86 129.595 18.6133 130.075 18.44C130.568 18.2667 131.108 18.18 131.695 18.18V20.72H130.855C130.455 20.72 130.075 20.7733 129.715 20.88C129.355 20.9733 129.042 21.1333 128.775 21.36C128.522 21.5733 128.322 21.8733 128.175 22.26C128.028 22.6333 127.955 23.1067 127.955 23.68V28.5H125.555ZM137.009 28.74C136.009 28.74 135.129 28.5267 134.369 28.1C133.609 27.66 133.016 27.0467 132.589 26.26C132.163 25.4733 131.949 24.5667 131.949 23.54C131.949 22.4733 132.156 21.54 132.569 20.74C132.996 19.94 133.589 19.3133 134.349 18.86C135.123 18.4067 136.016 18.18 137.029 18.18C138.016 18.18 138.876 18.4 139.609 18.84C140.343 19.28 140.909 19.8733 141.309 20.62C141.709 21.3533 141.909 22.18 141.909 23.1C141.909 23.2333 141.909 23.38 141.909 23.54C141.909 23.7 141.896 23.8667 141.869 24.04H133.669V22.5H139.489C139.463 21.7667 139.216 21.1933 138.749 20.78C138.283 20.3533 137.703 20.14 137.009 20.14C136.516 20.14 136.063 20.2533 135.649 20.48C135.236 20.7067 134.909 21.0467 134.669 21.5C134.429 21.94 134.309 22.5 134.309 23.18V23.76C134.309 24.3867 134.423 24.9267 134.649 25.38C134.889 25.8333 135.209 26.18 135.609 26.42C136.023 26.6467 136.483 26.76 136.989 26.76C137.549 26.76 138.009 26.64 138.369 26.4C138.743 26.16 139.016 25.84 139.189 25.44H141.629C141.443 26.0667 141.136 26.6333 140.709 27.14C140.283 27.6333 139.756 28.0267 139.129 28.32C138.503 28.6 137.796 28.74 137.009 28.74ZM143.225 28.5V18.42H145.625V28.5H143.225ZM144.425 16.82C143.985 16.82 143.618 16.6867 143.325 16.42C143.045 16.14 142.905 15.8 142.905 15.4C142.905 14.9867 143.045 14.6533 143.325 14.4C143.618 14.1333 143.985 14 144.425 14C144.865 14 145.225 14.1333 145.505 14.4C145.798 14.6533 145.945 14.9867 145.945 15.4C145.945 15.8 145.798 16.14 145.505 16.42C145.225 16.6867 144.865 16.82 144.425 16.82ZM151.779 28.5C151.099 28.5 150.505 28.3933 149.999 28.18C149.505 27.9667 149.119 27.6133 148.839 27.12C148.559 26.6267 148.419 25.96 148.419 25.12V20.44H146.699V18.42H148.419L148.699 15.76H150.819V18.42H153.559V20.44H150.819V25.12C150.819 25.6267 150.925 25.98 151.139 26.18C151.365 26.3667 151.739 26.46 152.259 26.46H153.499V28.5H151.779ZM158.177 28.74C157.35 28.74 156.663 28.6 156.117 28.32C155.57 28.04 155.163 27.6667 154.897 27.2C154.63 26.7333 154.497 26.2267 154.497 25.68C154.497 25.04 154.657 24.4867 154.977 24.02C155.31 23.5533 155.797 23.1933 156.437 22.94C157.077 22.6733 157.863 22.54 158.797 22.54H161.337C161.337 22.0067 161.263 21.5667 161.117 21.22C160.97 20.86 160.743 20.5933 160.437 20.42C160.13 20.2467 159.737 20.16 159.257 20.16C158.71 20.16 158.243 20.2867 157.857 20.54C157.47 20.78 157.23 21.1533 157.137 21.66H154.777C154.857 20.94 155.097 20.3267 155.497 19.82C155.897 19.3 156.423 18.9 157.077 18.62C157.743 18.3267 158.47 18.18 159.257 18.18C160.203 18.18 161.01 18.3467 161.677 18.68C162.343 19 162.85 19.4667 163.197 20.08C163.557 20.68 163.737 21.4067 163.737 22.26V28.5H161.697L161.457 26.88C161.323 27.1467 161.15 27.3933 160.937 27.62C160.737 27.8467 160.503 28.0467 160.237 28.22C159.97 28.38 159.663 28.5067 159.317 28.6C158.983 28.6933 158.603 28.74 158.177 28.74ZM158.717 26.84C159.103 26.84 159.443 26.7733 159.737 26.64C160.043 26.4933 160.303 26.2933 160.517 26.04C160.743 25.7733 160.917 25.48 161.037 25.16C161.157 24.84 161.237 24.5 161.277 24.14V24.1H159.057C158.59 24.1 158.203 24.16 157.897 24.28C157.59 24.3867 157.37 24.5467 157.237 24.76C157.103 24.9733 157.037 25.22 157.037 25.5C157.037 25.78 157.103 26.02 157.237 26.22C157.37 26.42 157.563 26.5733 157.817 26.68C158.07 26.7867 158.37 26.84 158.717 26.84ZM169.321 28.74C168.428 28.74 167.648 28.6 166.981 28.32C166.328 28.0267 165.808 27.6267 165.421 27.12C165.048 26.6 164.828 26.0067 164.761 25.34H167.161C167.228 25.62 167.348 25.88 167.521 26.12C167.694 26.3467 167.928 26.5267 168.221 26.66C168.528 26.7933 168.888 26.86 169.301 26.86C169.701 26.86 170.028 26.8067 170.281 26.7C170.534 26.58 170.721 26.4267 170.841 26.24C170.961 26.0533 171.021 25.8533 171.021 25.64C171.021 25.32 170.934 25.0733 170.761 24.9C170.588 24.7267 170.334 24.5933 170.001 24.5C169.681 24.3933 169.294 24.2933 168.841 24.2C168.361 24.1067 167.894 23.9933 167.441 23.86C167.001 23.7133 166.601 23.5333 166.241 23.32C165.894 23.1067 165.614 22.8333 165.401 22.5C165.201 22.1667 165.101 21.76 165.101 21.28C165.101 20.6933 165.254 20.1667 165.561 19.7C165.881 19.2333 166.334 18.8667 166.921 18.6C167.521 18.32 168.234 18.18 169.061 18.18C170.234 18.18 171.168 18.4533 171.861 19C172.568 19.5333 172.981 20.2867 173.101 21.26H170.821C170.754 20.8867 170.568 20.6 170.261 20.4C169.954 20.1867 169.548 20.08 169.041 20.08C168.521 20.08 168.121 20.18 167.841 20.38C167.574 20.5667 167.441 20.82 167.441 21.14C167.441 21.34 167.521 21.5267 167.681 21.7C167.854 21.86 168.101 22 168.421 22.12C168.741 22.2267 169.134 22.3333 169.601 22.44C170.348 22.5867 171.008 22.76 171.581 22.96C172.154 23.16 172.608 23.4533 172.941 23.84C173.274 24.2267 173.441 24.7733 173.441 25.48C173.454 26.12 173.288 26.6867 172.941 27.18C172.608 27.6733 172.134 28.06 171.521 28.34C170.908 28.6067 170.174 28.74 169.321 28.74Z" fill="white"/>
<path d="M175.81 28.6C175.356 28.6 174.99 28.46 174.71 28.18C174.43 27.9 174.29 27.5667 174.29 27.18C174.29 26.7667 174.43 26.42 174.71 26.14C174.99 25.86 175.356 25.72 175.81 25.72C176.25 25.72 176.61 25.86 176.89 26.14C177.17 26.42 177.31 26.7667 177.31 27.18C177.31 27.5667 177.17 27.9 176.89 28.18C176.61 28.46 176.25 28.6 175.81 28.6ZM178.496 32.9V18.42H180.636L180.896 19.88C181.11 19.5867 181.363 19.3133 181.656 19.06C181.963 18.7933 182.33 18.58 182.756 18.42C183.196 18.26 183.696 18.18 184.256 18.18C185.203 18.18 186.036 18.4133 186.756 18.88C187.49 19.3467 188.063 19.98 188.476 20.78C188.89 21.5667 189.096 22.4667 189.096 23.48C189.096 24.4933 188.883 25.4 188.456 26.2C188.043 26.9867 187.47 27.6067 186.736 28.06C186.016 28.5133 185.19 28.74 184.256 28.74C183.496 28.74 182.83 28.6 182.256 28.32C181.696 28.0267 181.243 27.6133 180.896 27.08V32.9H178.496ZM183.756 26.66C184.316 26.66 184.816 26.5267 185.256 26.26C185.696 25.9933 186.036 25.62 186.276 25.14C186.53 24.66 186.656 24.1067 186.656 23.48C186.656 22.84 186.53 22.28 186.276 21.8C186.036 21.32 185.696 20.9467 185.256 20.68C184.816 20.4133 184.316 20.28 183.756 20.28C183.183 20.28 182.676 20.4133 182.236 20.68C181.81 20.9467 181.47 21.32 181.216 21.8C180.976 22.28 180.856 22.8333 180.856 23.46C180.856 24.1 180.976 24.66 181.216 25.14C181.47 25.6067 181.81 25.98 182.236 26.26C182.676 26.5267 183.183 26.66 183.756 26.66ZM194.446 28.74C193.553 28.74 192.773 28.6 192.106 28.32C191.453 28.0267 190.933 27.6267 190.546 27.12C190.173 26.6 189.953 26.0067 189.886 25.34H192.286C192.353 25.62 192.473 25.88 192.646 26.12C192.819 26.3467 193.053 26.5267 193.346 26.66C193.653 26.7933 194.013 26.86 194.426 26.86C194.826 26.86 195.153 26.8067 195.406 26.7C195.659 26.58 195.846 26.4267 195.966 26.24C196.086 26.0533 196.146 25.8533 196.146 25.64C196.146 25.32 196.059 25.0733 195.886 24.9C195.713 24.7267 195.459 24.5933 195.126 24.5C194.806 24.3933 194.419 24.2933 193.966 24.2C193.486 24.1067 193.019 23.9933 192.566 23.86C192.126 23.7133 191.726 23.5333 191.366 23.32C191.019 23.1067 190.739 22.8333 190.526 22.5C190.326 22.1667 190.226 21.76 190.226 21.28C190.226 20.6933 190.379 20.1667 190.686 19.7C191.006 19.2333 191.459 18.8667 192.046 18.6C192.646 18.32 193.359 18.18 194.186 18.18C195.359 18.18 196.293 18.4533 196.986 19C197.693 19.5333 198.106 20.2867 198.226 21.26H195.946C195.879 20.8867 195.693 20.6 195.386 20.4C195.079 20.1867 194.673 20.08 194.166 20.08C193.646 20.08 193.246 20.18 192.966 20.38C192.699 20.5667 192.566 20.82 192.566 21.14C192.566 21.34 192.646 21.5267 192.806 21.7C192.979 21.86 193.226 22 193.546 22.12C193.866 22.2267 194.259 22.3333 194.726 22.44C195.473 22.5867 196.133 22.76 196.706 22.96C197.279 23.16 197.733 23.4533 198.066 23.84C198.399 24.2267 198.566 24.7733 198.566 25.48C198.579 26.12 198.413 26.6867 198.066 27.18C197.733 27.6733 197.259 28.06 196.646 28.34C196.033 28.6067 195.299 28.74 194.446 28.74ZM199.995 28.5V18.42H202.395V28.5H199.995ZM201.195 16.82C200.755 16.82 200.388 16.6867 200.095 16.42C199.815 16.14 199.675 15.8 199.675 15.4C199.675 14.9867 199.815 14.6533 200.095 14.4C200.388 14.1333 200.755 14 201.195 14C201.635 14 201.995 14.1333 202.275 14.4C202.568 14.6533 202.715 14.9867 202.715 15.4C202.715 15.8 202.568 16.14 202.275 16.42C201.995 16.6867 201.635 16.82 201.195 16.82Z" fill="#6EB78C"/>
<defs>
<filter id="filter0_d_9_112" x="9.49988" y="5.33383" width="19.1471" height="18.3322" filterUnits="userSpaceOnUse" color-interpolation-filters="sRGB">
<feFlood flood-opacity="0" result="BackgroundImageFix"/>
<feColorMatrix in="SourceAlpha" type="matrix" values="0 0 0 0 0 0 0 0 0 0 0 0 0 0 0 0 0 0 127 0" result="hardAlpha"/>
<feOffset dx="4"/>
<feGaussianBlur stdDeviation="2"/>
<feComposite in2="hardAlpha" operator="out"/>
<feColorMatrix type="matrix" values="0 0 0 0 0.431373 0 0 0 0 0.717647 0 0 0 0 0.54902 0 0 0 0.2 0"/>
<feBlend mode="normal" in2="BackgroundImageFix" result="effect1_dropShadow_9_112"/>
<feBlend mode="normal" in="SourceGraphic" in2="effect1_dropShadow_9_112" result="shape"/>
</filter>
<linearGradient id="paint0_linear_9_112" x1="48.9468" y1="30.5" x2="18.6387" y2="8.13812" gradientUnits="userSpaceOnUse">
<stop stop-color="white"/>
<stop offset="1" stop-color="white" stop-opacity="0.44"/>
</linearGradient>
</defs>
</svg>
